<?xml version="1.0" encoding="UTF-8" standalone="no"?>
<!DOCTYPE svg PUBLIC "-//W3C//DTD SVG 1.1//EN"
 "http://www.w3.org/Graphics/SVG/1.1/DTD/svg11.dtd">
<!-- Generated by graphviz version 2.43.0 (0)
 -->
<!-- Title: G Pages: 1 -->
<svg width="298pt" height="2636pt"
 viewBox="0.00 0.00 297.98 2636.00" xmlns="http://www.w3.org/2000/svg" xmlns:xlink="http://www.w3.org/1999/xlink">
<g id="graph0" class="graph" transform="scale(1 1) rotate(0) translate(4 2632)">
<title>G</title>
<polygon fill="white" stroke="transparent" points="-4,4 -4,-2632 293.98,-2632 293.98,4 -4,4"/>
<!-- CF -->
<g id="node1" class="node">
<title>CF</title>
<ellipse fill="none" stroke="black" cx="27" cy="-1233" rx="27" ry="18"/>
<text text-anchor="middle" x="27" y="-1228.8" font-family="Times,serif" font-size="14.00">CF</text>
</g>
<!-- CFAllocator -->
<g id="node2" class="node">
<title>CFAllocator</title>
<ellipse fill="none" stroke="black" cx="189.99" cy="-2610" rx="53.84" ry="18"/>
<text text-anchor="middle" x="189.99" y="-2605.8" font-family="Times,serif" font-size="14.00">CFAllocator</text>
</g>
<!-- CF&#45;&gt;CFAllocator -->
<g id="edge1" class="edge">
<title>CF&#45;&gt;CFAllocator</title>
<path fill="none" stroke="black" d="M28.23,-1251.28C30.28,-1408.51 46.37,-2528.52 90,-2583 99.18,-2594.47 112.72,-2601.35 126.86,-2605.41"/>
<polygon fill="black" stroke="black" points="126.15,-2608.84 136.69,-2607.79 127.8,-2602.03 126.15,-2608.84"/>
</g>
<!-- CFBasicHash -->
<g id="node3" class="node">
<title>CFBasicHash</title>
<ellipse fill="none" stroke="black" cx="189.99" cy="-2556" rx="58.99" ry="18"/>
<text text-anchor="middle" x="189.99" y="-2551.8" font-family="Times,serif" font-size="14.00">CFBasicHash</text>
</g>
<!-- CF&#45;&gt;CFBasicHash -->
<g id="edge2" class="edge">
<title>CF&#45;&gt;CFBasicHash</title>
<path fill="none" stroke="black" d="M28.26,-1251.02C30.55,-1403.75 48.11,-2476.79 90,-2529 98.22,-2539.24 109.91,-2545.82 122.39,-2550"/>
<polygon fill="black" stroke="black" points="121.47,-2553.38 132.05,-2552.75 123.39,-2546.65 121.47,-2553.38"/>
</g>
<!-- CFBag -->
<g id="node4" class="node">
<title>CFBag</title>
<ellipse fill="none" stroke="black" cx="189.99" cy="-2502" rx="35.34" ry="18"/>
<text text-anchor="middle" x="189.99" y="-2497.8" font-family="Times,serif" font-size="14.00">CFBag</text>
</g>
<!-- CF&#45;&gt;CFBag -->
<g id="edge3" class="edge">
<title>CF&#45;&gt;CFBag</title>
<path fill="none" stroke="black" d="M28.3,-1251.21C30.87,-1400.96 49.88,-2425.1 90,-2475 103.02,-2491.2 124.73,-2498.24 144.51,-2501.1"/>
<polygon fill="black" stroke="black" points="144.29,-2504.6 154.62,-2502.25 145.08,-2497.65 144.29,-2504.6"/>
</g>
<!-- CFString -->
<g id="node5" class="node">
<title>CFString</title>
<ellipse fill="none" stroke="black" cx="189.99" cy="-2448" rx="42.59" ry="18"/>
<text text-anchor="middle" x="189.99" y="-2443.8" font-family="Times,serif" font-size="14.00">CFString</text>
</g>
<!-- CF&#45;&gt;CFString -->
<g id="edge4" class="edge">
<title>CF&#45;&gt;CFString</title>
<path fill="none" stroke="black" d="M28.35,-1251.33C31.21,-1397.79 51.65,-2373.41 90,-2421 101.4,-2435.15 119.43,-2442.3 136.99,-2445.8"/>
<polygon fill="black" stroke="black" points="136.79,-2449.31 147.23,-2447.46 137.91,-2442.4 136.79,-2449.31"/>
</g>
<!-- CFNull -->
<g id="node6" class="node">
<title>CFNull</title>
<ellipse fill="none" stroke="black" cx="189.99" cy="-2394" rx="36.79" ry="18"/>
<text text-anchor="middle" x="189.99" y="-2389.8" font-family="Times,serif" font-size="14.00">CFNull</text>
</g>
<!-- CF&#45;&gt;CFNull -->
<g id="edge5" class="edge">
<title>CF&#45;&gt;CFNull</title>
<path fill="none" stroke="black" d="M28.4,-1251.4C31.55,-1394.23 53.41,-2321.71 90,-2367 102.77,-2382.81 123.83,-2389.89 143.24,-2392.88"/>
<polygon fill="black" stroke="black" points="142.84,-2396.36 153.19,-2394.1 143.69,-2389.41 142.84,-2396.36"/>
</g>
<!-- CFSet -->
<g id="node7" class="node">
<title>CFSet</title>
<ellipse fill="none" stroke="black" cx="189.99" cy="-2340" rx="32.45" ry="18"/>
<text text-anchor="middle" x="189.99" y="-2335.8" font-family="Times,serif" font-size="14.00">CFSet</text>
</g>
<!-- CF&#45;&gt;CFSet -->
<g id="edge6" class="edge">
<title>CF&#45;&gt;CFSet</title>
<path fill="none" stroke="black" d="M27.79,-1251.01C26.38,-1385.28 20.39,-2227.09 90,-2313 103.72,-2329.93 126.93,-2336.85 147.43,-2339.45"/>
<polygon fill="black" stroke="black" points="147.24,-2342.95 157.53,-2340.43 147.91,-2335.98 147.24,-2342.95"/>
</g>
<!-- CFDictionary -->
<g id="node8" class="node">
<title>CFDictionary</title>
<ellipse fill="none" stroke="black" cx="189.99" cy="-2286" rx="58.98" ry="18"/>
<text text-anchor="middle" x="189.99" y="-2281.8" font-family="Times,serif" font-size="14.00">CFDictionary</text>
</g>
<!-- CF&#45;&gt;CFDictionary -->
<g id="edge7" class="edge">
<title>CF&#45;&gt;CFDictionary</title>
<path fill="none" stroke="black" d="M27.85,-1251.35C26.9,-1382.77 23.95,-2177.73 90,-2259 98.28,-2269.19 110,-2275.75 122.49,-2279.93"/>
<polygon fill="black" stroke="black" points="121.57,-2283.3 132.15,-2282.68 123.49,-2276.57 121.57,-2283.3"/>
</g>
<!-- CFArray -->
<g id="node9" class="node">
<title>CFArray</title>
<ellipse fill="none" stroke="black" cx="189.99" cy="-2232" rx="40.79" ry="18"/>
<text text-anchor="middle" x="189.99" y="-2227.8" font-family="Times,serif" font-size="14.00">CFArray</text>
</g>
<!-- CF&#45;&gt;CFArray -->
<g id="edge8" class="edge">
<title>CF&#45;&gt;CFArray</title>
<path fill="none" stroke="black" d="M27.91,-1251.19C27.45,-1378.11 27.42,-2128.26 90,-2205 101.87,-2219.56 120.76,-2226.71 138.88,-2230.07"/>
<polygon fill="black" stroke="black" points="138.4,-2233.54 148.81,-2231.58 139.45,-2226.62 138.4,-2233.54"/>
</g>
<!-- CFData -->
<g id="node10" class="node">
<title>CFData</title>
<ellipse fill="none" stroke="black" cx="189.99" cy="-2178" rx="37.74" ry="18"/>
<text text-anchor="middle" x="189.99" y="-2173.8" font-family="Times,serif" font-size="14.00">CFData</text>
</g>
<!-- CF&#45;&gt;CFData -->
<g id="edge9" class="edge">
<title>CF&#45;&gt;CFData</title>
<path fill="none" stroke="black" d="M27.98,-1251.36C28.04,-1374.59 30.93,-2078.85 90,-2151 102.63,-2166.42 123.12,-2173.52 142.2,-2176.63"/>
<polygon fill="black" stroke="black" points="141.93,-2180.12 152.3,-2177.94 142.83,-2173.18 141.93,-2180.12"/>
</g>
<!-- CFBoolean -->
<g id="node11" class="node">
<title>CFBoolean</title>
<ellipse fill="none" stroke="black" cx="189.99" cy="-2124" rx="50.29" ry="18"/>
<text text-anchor="middle" x="189.99" y="-2119.8" font-family="Times,serif" font-size="14.00">CFBoolean</text>
</g>
<!-- CF&#45;&gt;CFBoolean -->
<g id="edge10" class="edge">
<title>CF&#45;&gt;CFBoolean</title>
<path fill="none" stroke="black" d="M28.06,-1251.03C28.64,-1369.12 34.37,-2029.33 90,-2097 99.93,-2109.08 114.69,-2116.05 129.79,-2119.99"/>
<polygon fill="black" stroke="black" points="129.21,-2123.45 139.72,-2122.17 130.71,-2116.61 129.21,-2123.45"/>
</g>
<!-- CFNumber -->
<g id="node12" class="node">
<title>CFNumber</title>
<ellipse fill="none" stroke="black" cx="189.99" cy="-2070" rx="49.81" ry="18"/>
<text text-anchor="middle" x="189.99" y="-2065.8" font-family="Times,serif" font-size="14.00">CFNumber</text>
</g>
<!-- CF&#45;&gt;CFNumber -->
<g id="edge11" class="edge">
<title>CF&#45;&gt;CFNumber</title>
<path fill="none" stroke="black" d="M28.16,-1250.99C29.29,-1364.61 37.85,-1979.87 90,-2043 100.05,-2055.17 115,-2062.15 130.25,-2066.07"/>
<polygon fill="black" stroke="black" points="129.76,-2069.55 140.27,-2068.23 131.24,-2062.7 129.76,-2069.55"/>
</g>
<!-- CFBinaryHeap -->
<g id="node13" class="node">
<title>CFBinaryHeap</title>
<ellipse fill="none" stroke="black" cx="189.99" cy="-2016" rx="63.8" ry="18"/>
<text text-anchor="middle" x="189.99" y="-2011.8" font-family="Times,serif" font-size="14.00">CFBinaryHeap</text>
</g>
<!-- CF&#45;&gt;CFBinaryHeap -->
<g id="edge12" class="edge">
<title>CF&#45;&gt;CFBinaryHeap</title>
<path fill="none" stroke="black" d="M28.26,-1251.19C30,-1360.79 41.35,-1930.44 90,-1989 97.44,-1997.96 107.53,-2004.1 118.44,-2008.28"/>
<polygon fill="black" stroke="black" points="117.59,-2011.69 128.18,-2011.47 119.77,-2005.03 117.59,-2011.69"/>
</g>
<!-- CFBitVector -->
<g id="node14" class="node">
<title>CFBitVector</title>
<ellipse fill="none" stroke="black" cx="189.99" cy="-1962" rx="54.63" ry="18"/>
<text text-anchor="middle" x="189.99" y="-1957.8" font-family="Times,serif" font-size="14.00">CFBitVector</text>
</g>
<!-- CF&#45;&gt;CFBitVector -->
<g id="edge13" class="edge">
<title>CF&#45;&gt;CFBitVector</title>
<path fill="none" stroke="black" d="M28.38,-1251.24C30.76,-1356.25 44.83,-1880.97 90,-1935 99.1,-1945.89 112.12,-1952.61 125.75,-1956.71"/>
<polygon fill="black" stroke="black" points="125.17,-1960.18 135.72,-1959.26 126.9,-1953.4 125.17,-1960.18"/>
</g>
<!-- CFCharacterSet -->
<g id="node15" class="node">
<title>CFCharacterSet</title>
<ellipse fill="none" stroke="black" cx="189.99" cy="-1908" rx="66.68" ry="18"/>
<text text-anchor="middle" x="189.99" y="-1903.8" font-family="Times,serif" font-size="14.00">CFCharacterSet</text>
</g>
<!-- CF&#45;&gt;CFCharacterSet -->
<g id="edge14" class="edge">
<title>CF&#45;&gt;CFCharacterSet</title>
<path fill="none" stroke="black" d="M28.52,-1251.12C31.56,-1350.99 48.28,-1831.46 90,-1881 97.07,-1889.4 106.48,-1895.32 116.68,-1899.46"/>
<polygon fill="black" stroke="black" points="115.64,-1902.81 126.23,-1902.79 117.94,-1896.2 115.64,-1902.81"/>
</g>
<!-- CFStorage -->
<g id="node16" class="node">
<title>CFStorage</title>
<ellipse fill="none" stroke="black" cx="189.99" cy="-1854" rx="47.88" ry="18"/>
<text text-anchor="middle" x="189.99" y="-1849.8" font-family="Times,serif" font-size="14.00">CFStorage</text>
</g>
<!-- CF&#45;&gt;CFStorage -->
<g id="edge15" class="edge">
<title>CF&#45;&gt;CFStorage</title>
<path fill="none" stroke="black" d="M28.69,-1251.15C32.45,-1345.98 51.73,-1781.96 90,-1827 100.6,-1839.48 116.35,-1846.48 132.19,-1850.32"/>
<polygon fill="black" stroke="black" points="131.52,-1853.76 142.01,-1852.33 132.92,-1846.9 131.52,-1853.76"/>
</g>
<!-- CFError -->
<g id="node17" class="node">
<title>CFError</title>
<ellipse fill="none" stroke="black" cx="189.99" cy="-1800" rx="39.66" ry="18"/>
<text text-anchor="middle" x="189.99" y="-1795.8" font-family="Times,serif" font-size="14.00">CFError</text>
</g>
<!-- CF&#45;&gt;CFError -->
<g id="edge16" class="edge">
<title>CF&#45;&gt;CFError</title>
<path fill="none" stroke="black" d="M28.89,-1251.24C33.44,-1340.94 55.19,-1732.46 90,-1773 102.43,-1787.48 121.8,-1794.57 140.12,-1797.92"/>
<polygon fill="black" stroke="black" points="139.73,-1801.4 150.14,-1799.42 140.77,-1794.48 139.73,-1801.4"/>
</g>
<!-- CFTree -->
<g id="node18" class="node">
<title>CFTree</title>
<ellipse fill="none" stroke="black" cx="189.99" cy="-1746" rx="36.63" ry="18"/>
<text text-anchor="middle" x="189.99" y="-1741.8" font-family="Times,serif" font-size="14.00">CFTree</text>
</g>
<!-- CF&#45;&gt;CFTree -->
<g id="edge17" class="edge">
<title>CF&#45;&gt;CFTree</title>
<path fill="none" stroke="black" d="M27.73,-1251.04C26.91,-1330.35 27.63,-1647.27 90,-1719 103.18,-1734.15 123.95,-1741.2 143.06,-1744.34"/>
<polygon fill="black" stroke="black" points="142.79,-1747.83 153.16,-1745.67 143.7,-1740.89 142.79,-1747.83"/>
</g>
<!-- CFURL -->
<g id="node19" class="node">
<title>CFURL</title>
<ellipse fill="none" stroke="black" cx="189.99" cy="-1692" rx="38.72" ry="18"/>
<text text-anchor="middle" x="189.99" y="-1687.8" font-family="Times,serif" font-size="14.00">CFURL</text>
</g>
<!-- CF&#45;&gt;CFURL -->
<g id="edge18" class="edge">
<title>CF&#45;&gt;CFURL</title>
<path fill="none" stroke="black" d="M28.05,-1251C28.61,-1324.64 34.45,-1602.11 90,-1665 102.84,-1679.53 122.65,-1686.59 141.19,-1689.9"/>
<polygon fill="black" stroke="black" points="140.91,-1693.39 151.31,-1691.37 141.92,-1686.47 140.91,-1693.39"/>
</g>
<!-- CFURLComponents -->
<g id="node20" class="node">
<title>CFURLComponents</title>
<ellipse fill="none" stroke="black" cx="189.99" cy="-1638" rx="83.14" ry="18"/>
<text text-anchor="middle" x="189.99" y="-1633.8" font-family="Times,serif" font-size="14.00">CFURLComponents</text>
</g>
<!-- CF&#45;&gt;CFURLComponents -->
<g id="edge19" class="edge">
<title>CF&#45;&gt;CFURLComponents</title>
<path fill="none" stroke="black" d="M28.46,-1251.02C30.53,-1318.73 41.25,-1556.91 90,-1611 95.08,-1616.64 101.22,-1621.15 107.91,-1624.75"/>
<polygon fill="black" stroke="black" points="106.8,-1628.09 117.34,-1629.12 109.74,-1621.74 106.8,-1628.09"/>
</g>
<!-- CFBundle -->
<g id="node21" class="node">
<title>CFBundle</title>
<ellipse fill="none" stroke="black" cx="189.99" cy="-1584" rx="46.44" ry="18"/>
<text text-anchor="middle" x="189.99" y="-1579.8" font-family="Times,serif" font-size="14.00">CFBundle</text>
</g>
<!-- CF&#45;&gt;CFBundle -->
<g id="edge20" class="edge">
<title>CF&#45;&gt;CFBundle</title>
<path fill="none" stroke="black" d="M29.02,-1251.36C32.8,-1313.08 48.08,-1511.71 90,-1557 101.32,-1569.23 117.6,-1576.13 133.68,-1579.96"/>
<polygon fill="black" stroke="black" points="133.14,-1583.42 143.63,-1581.97 134.52,-1576.56 133.14,-1583.42"/>
</g>
<!-- CFPlugInInstance -->
<g id="node22" class="node">
<title>CFPlugInInstance</title>
<ellipse fill="none" stroke="black" cx="189.99" cy="-1530" rx="73.94" ry="18"/>
<text text-anchor="middle" x="189.99" y="-1525.8" font-family="Times,serif" font-size="14.00">CFPlugInInstance</text>
</g>
<!-- CF&#45;&gt;CFPlugInInstance -->
<g id="edge21" class="edge">
<title>CF&#45;&gt;CFPlugInInstance</title>
<path fill="none" stroke="black" d="M29.74,-1250.93C35.34,-1305.2 54.69,-1466.23 90,-1503 96.48,-1509.75 104.46,-1514.86 113.06,-1518.73"/>
<polygon fill="black" stroke="black" points="112.01,-1522.08 122.6,-1522.46 114.56,-1515.56 112.01,-1522.08"/>
</g>
<!-- CFPasteboard -->
<g id="node23" class="node">
<title>CFPasteboard</title>
<ellipse fill="none" stroke="black" cx="189.99" cy="-1476" rx="59.95" ry="18"/>
<text text-anchor="middle" x="189.99" y="-1471.8" font-family="Times,serif" font-size="14.00">CFPasteboard</text>
</g>
<!-- CF&#45;&gt;CFPasteboard -->
<g id="edge22" class="edge">
<title>CF&#45;&gt;CFPasteboard</title>
<path fill="none" stroke="black" d="M27.63,-1251C27.8,-1292.17 34.18,-1393.92 90,-1449 99,-1457.89 110.63,-1463.92 122.73,-1468"/>
<polygon fill="black" stroke="black" points="121.91,-1471.41 132.5,-1470.87 123.89,-1464.69 121.91,-1471.41"/>
</g>
<!-- CFUserNotification -->
<g id="node24" class="node">
<title>CFUserNotification</title>
<ellipse fill="none" stroke="black" cx="189.99" cy="-1422" rx="79.74" ry="18"/>
<text text-anchor="middle" x="189.99" y="-1417.8" font-family="Times,serif" font-size="14.00">CFUserNotification</text>
</g>
<!-- CF&#45;&gt;CFUserNotification -->
<g id="edge23" class="edge">
<title>CF&#45;&gt;CFUserNotification</title>
<path fill="none" stroke="black" d="M29.65,-1251.04C33.69,-1284.47 47.14,-1356.19 90,-1395 96.36,-1400.76 103.83,-1405.3 111.77,-1408.89"/>
<polygon fill="black" stroke="black" points="110.67,-1412.22 121.26,-1412.68 113.27,-1405.72 110.67,-1412.22"/>
</g>
<!-- CFUUID -->
<g id="node25" class="node">
<title>CFUUID</title>
<ellipse fill="none" stroke="black" cx="189.99" cy="-1368" rx="43.06" ry="18"/>
<text text-anchor="middle" x="189.99" y="-1363.8" font-family="Times,serif" font-size="14.00">CFUUID</text>
</g>
<!-- CF&#45;&gt;CFUUID -->
<g id="edge24" class="edge">
<title>CF&#45;&gt;CFUUID</title>
<path fill="none" stroke="black" d="M33.42,-1250.82C41.67,-1274.93 59.72,-1317.6 90,-1341 103.66,-1351.55 121.15,-1357.99 137.63,-1361.91"/>
<polygon fill="black" stroke="black" points="137.21,-1365.39 147.71,-1364.04 138.65,-1358.54 137.21,-1365.39"/>
</g>
<!-- CFLocale -->
<g id="node26" class="node">
<title>CFLocale</title>
<ellipse fill="none" stroke="black" cx="189.99" cy="-1314" rx="44.96" ry="18"/>
<text text-anchor="middle" x="189.99" y="-1309.8" font-family="Times,serif" font-size="14.00">CFLocale</text>
</g>
<!-- CF&#45;&gt;CFLocale -->
<g id="edge25" class="edge">
<title>CF&#45;&gt;CFLocale</title>
<path fill="none" stroke="black" d="M41.85,-1248.4C53.56,-1260.54 71.37,-1277.03 90,-1287 104.83,-1294.94 122.18,-1300.69 138.18,-1304.79"/>
<polygon fill="black" stroke="black" points="137.39,-1308.2 147.93,-1307.14 139.03,-1301.4 137.39,-1308.2"/>
</g>
<!-- CFDateFormatter -->
<g id="node27" class="node">
<title>CFDateFormatter</title>
<ellipse fill="none" stroke="black" cx="189.99" cy="-1260" rx="72.48" ry="18"/>
<text text-anchor="middle" x="189.99" y="-1255.8" font-family="Times,serif" font-size="14.00">CFDateFormatter</text>
</g>
<!-- CF&#45;&gt;CFDateFormatter -->
<g id="edge26" class="edge">
<title>CF&#45;&gt;CFDateFormatter</title>
<path fill="none" stroke="black" d="M53.51,-1237.28C71.35,-1240.27 96.1,-1244.42 119.57,-1248.36"/>
<polygon fill="black" stroke="black" points="119.08,-1251.82 129.52,-1250.03 120.24,-1244.92 119.08,-1251.82"/>
</g>
<!-- CFNumberFormatter -->
<g id="node28" class="node">
<title>CFNumberFormatter</title>
<ellipse fill="none" stroke="black" cx="189.99" cy="-1206" rx="84.55" ry="18"/>
<text text-anchor="middle" x="189.99" y="-1201.8" font-family="Times,serif" font-size="14.00">CFNumberFormatter</text>
</g>
<!-- CF&#45;&gt;CFNumberFormatter -->
<g id="edge27" class="edge">
<title>CF&#45;&gt;CFNumberFormatter</title>
<path fill="none" stroke="black" d="M53.51,-1228.72C69.66,-1226.01 91.46,-1222.36 112.86,-1218.77"/>
<polygon fill="black" stroke="black" points="113.68,-1222.18 122.97,-1217.07 112.53,-1215.27 113.68,-1222.18"/>
</g>
<!-- CFCalendar -->
<g id="node29" class="node">
<title>CFCalendar</title>
<ellipse fill="none" stroke="black" cx="189.99" cy="-1152" rx="52.69" ry="18"/>
<text text-anchor="middle" x="189.99" y="-1147.8" font-family="Times,serif" font-size="14.00">CFCalendar</text>
</g>
<!-- CF&#45;&gt;CFCalendar -->
<g id="edge28" class="edge">
<title>CF&#45;&gt;CFCalendar</title>
<path fill="none" stroke="black" d="M37.25,-1216.06C48.52,-1201.27 68.73,-1181.38 90,-1170 101.4,-1163.9 114.3,-1159.09 126.92,-1155.53"/>
<polygon fill="black" stroke="black" points="128.14,-1158.83 136.95,-1152.94 126.4,-1152.05 128.14,-1158.83"/>
</g>
<!-- CF&#45;&gt;CFCalendar -->
<g id="edge51" class="edge">
<title>CF&#45;&gt;CFCalendar</title>
<path fill="none" stroke="black" d="M46.65,-1220.58C58.15,-1210.33 73.77,-1196.69 90,-1188 106.67,-1179.08 126.54,-1172.91 144.09,-1168.11"/>
<polygon fill="black" stroke="black" points="145.35,-1171.39 154.11,-1165.43 143.54,-1164.63 145.35,-1171.39"/>
</g>
<!-- CFDate -->
<g id="node30" class="node">
<title>CFDate</title>
<ellipse fill="none" stroke="black" cx="189.99" cy="-1098" rx="37.74" ry="18"/>
<text text-anchor="middle" x="189.99" y="-1093.8" font-family="Times,serif" font-size="14.00">CFDate</text>
</g>
<!-- CF&#45;&gt;CFDate -->
<g id="edge29" class="edge">
<title>CF&#45;&gt;CFDate</title>
<path fill="none" stroke="black" d="M31.76,-1214.85C39.09,-1188.44 57.5,-1141.12 90,-1116 105.27,-1104.2 125.34,-1097.55 143.42,-1094.49"/>
<polygon fill="black" stroke="black" points="144.06,-1097.93 153.5,-1093.12 143.12,-1091 144.06,-1097.93"/>
</g>
<!-- CF&#45;&gt;CFDate -->
<g id="edge31" class="edge">
<title>CF&#45;&gt;CFDate</title>
<path fill="none" stroke="black" d="M35.56,-1215.81C44.61,-1193.44 62.12,-1155.55 90,-1134 106.61,-1121.17 128.9,-1114.43 148.12,-1110.01"/>
<polygon fill="black" stroke="black" points="149.11,-1113.38 158.13,-1107.84 147.62,-1106.54 149.11,-1113.38"/>
</g>
<!-- CFTimeZone -->
<g id="node31" class="node">
<title>CFTimeZone</title>
<ellipse fill="none" stroke="black" cx="189.99" cy="-1044" rx="57.4" ry="18"/>
<text text-anchor="middle" x="189.99" y="-1039.8" font-family="Times,serif" font-size="14.00">CFTimeZone</text>
</g>
<!-- CF&#45;&gt;CFTimeZone -->
<g id="edge30" class="edge">
<title>CF&#45;&gt;CFTimeZone</title>
<path fill="none" stroke="black" d="M29.12,-1215.03C32.44,-1179.71 45.02,-1102.73 90,-1062 99.38,-1053.51 111.17,-1047.65 123.32,-1043.81"/>
<polygon fill="black" stroke="black" points="124.36,-1047.15 133.09,-1041.15 122.52,-1040.4 124.36,-1047.15"/>
</g>
<!-- CF&#45;&gt;CFTimeZone -->
<g id="edge50" class="edge">
<title>CF&#45;&gt;CFTimeZone</title>
<path fill="none" stroke="black" d="M30.4,-1214.94C35.25,-1182.78 49.48,-1116.68 90,-1080 102.47,-1068.71 119.2,-1062.08 135.36,-1057.75"/>
<polygon fill="black" stroke="black" points="136.41,-1061.1 145.3,-1055.33 134.76,-1054.29 136.41,-1061.1"/>
</g>
<!-- CFKeyedArchiverUID -->
<g id="node32" class="node">
<title>CFKeyedArchiverUID</title>
<ellipse fill="none" stroke="black" cx="189.99" cy="-990" rx="91.3" ry="18"/>
<text text-anchor="middle" x="189.99" y="-985.8" font-family="Times,serif" font-size="14.00">CFKeyedArchiverUID</text>
</g>
<!-- CF&#45;&gt;CFKeyedArchiverUID -->
<g id="edge32" class="edge">
<title>CF&#45;&gt;CFKeyedArchiverUID</title>
<path fill="none" stroke="black" d="M27.63,-1215C27.8,-1173.83 34.18,-1072.08 90,-1017 94.9,-1012.17 100.57,-1008.18 106.68,-1004.89"/>
<polygon fill="black" stroke="black" points="108.33,-1007.98 115.89,-1000.55 105.35,-1001.64 108.33,-1007.98"/>
</g>
<!-- CFXMLParser -->
<g id="node33" class="node">
<title>CFXMLParser</title>
<ellipse fill="none" stroke="black" cx="189.99" cy="-936" rx="62.85" ry="18"/>
<text text-anchor="middle" x="189.99" y="-931.8" font-family="Times,serif" font-size="14.00">CFXMLParser</text>
</g>
<!-- CF&#45;&gt;CFXMLParser -->
<g id="edge33" class="edge">
<title>CF&#45;&gt;CFXMLParser</title>
<path fill="none" stroke="black" d="M29.74,-1215.07C35.34,-1160.8 54.69,-999.77 90,-963 98.29,-954.37 109.05,-948.41 120.4,-944.31"/>
<polygon fill="black" stroke="black" points="121.55,-947.62 130.04,-941.29 119.46,-940.94 121.55,-947.62"/>
</g>
<!-- CFXMLNode -->
<g id="node34" class="node">
<title>CFXMLNode</title>
<ellipse fill="none" stroke="black" cx="189.99" cy="-882" rx="59.96" ry="18"/>
<text text-anchor="middle" x="189.99" y="-877.8" font-family="Times,serif" font-size="14.00">CFXMLNode</text>
</g>
<!-- CF&#45;&gt;CFXMLNode -->
<g id="edge34" class="edge">
<title>CF&#45;&gt;CFXMLNode</title>
<path fill="none" stroke="black" d="M29.02,-1214.64C32.8,-1152.92 48.08,-954.29 90,-909 98.59,-899.72 110.04,-893.51 122.09,-889.38"/>
<polygon fill="black" stroke="black" points="123.24,-892.69 131.84,-886.49 121.26,-885.97 123.24,-892.69"/>
</g>
<!-- CFPFactory -->
<g id="node35" class="node">
<title>CFPFactory</title>
<ellipse fill="none" stroke="black" cx="189.99" cy="-828" rx="52.71" ry="18"/>
<text text-anchor="middle" x="189.99" y="-823.8" font-family="Times,serif" font-size="14.00">CFPFactory</text>
</g>
<!-- CF&#45;&gt;CFPFactory -->
<g id="edge35" class="edge">
<title>CF&#45;&gt;CFPFactory</title>
<path fill="none" stroke="black" d="M28.46,-1214.98C30.53,-1147.27 41.25,-909.09 90,-855 99.84,-844.09 113.61,-837.4 127.76,-833.36"/>
<polygon fill="black" stroke="black" points="128.69,-836.73 137.57,-830.96 127.03,-829.93 128.69,-836.73"/>
</g>
<!-- CFPreferencesDomain -->
<g id="node36" class="node">
<title>CFPreferencesDomain</title>
<ellipse fill="none" stroke="black" cx="189.99" cy="-774" rx="90.81" ry="18"/>
<text text-anchor="middle" x="189.99" y="-769.8" font-family="Times,serif" font-size="14.00">CFPreferencesDomain</text>
</g>
<!-- CF&#45;&gt;CFPreferencesDomain -->
<g id="edge36" class="edge">
<title>CF&#45;&gt;CFPreferencesDomain</title>
<path fill="none" stroke="black" d="M28.05,-1215C28.61,-1141.36 34.45,-863.89 90,-801 94.33,-796.09 99.46,-792.04 105.07,-788.69"/>
<polygon fill="black" stroke="black" points="106.93,-791.68 114.23,-784 103.73,-785.45 106.93,-791.68"/>
</g>
<!-- CFMachPort -->
<g id="node37" class="node">
<title>CFMachPort</title>
<ellipse fill="none" stroke="black" cx="189.99" cy="-720" rx="55.6" ry="18"/>
<text text-anchor="middle" x="189.99" y="-715.8" font-family="Times,serif" font-size="14.00">CFMachPort</text>
</g>
<!-- CF&#45;&gt;CFMachPort -->
<g id="edge37" class="edge">
<title>CF&#45;&gt;CFMachPort</title>
<path fill="none" stroke="black" d="M27.73,-1214.96C26.91,-1135.65 27.63,-818.73 90,-747 99.12,-736.51 111.89,-729.9 125.22,-725.79"/>
<polygon fill="black" stroke="black" points="126.21,-729.15 134.99,-723.22 124.42,-722.38 126.21,-729.15"/>
</g>
<!-- CFMessagePort -->
<g id="node38" class="node">
<title>CFMessagePort</title>
<ellipse fill="none" stroke="black" cx="189.99" cy="-666" rx="66.72" ry="18"/>
<text text-anchor="middle" x="189.99" y="-661.8" font-family="Times,serif" font-size="14.00">CFMessagePort</text>
</g>
<!-- CF&#45;&gt;CFMessagePort -->
<g id="edge38" class="edge">
<title>CF&#45;&gt;CFMessagePort</title>
<path fill="none" stroke="black" d="M28.89,-1214.76C33.44,-1125.06 55.19,-733.54 90,-693 97.11,-684.72 106.48,-678.86 116.63,-674.73"/>
<polygon fill="black" stroke="black" points="117.84,-678.01 126.12,-671.41 115.53,-671.41 117.84,-678.01"/>
</g>
<!-- CFRunLoopMode -->
<g id="node39" class="node">
<title>CFRunLoopMode</title>
<ellipse fill="none" stroke="black" cx="189.99" cy="-612" rx="74.93" ry="18"/>
<text text-anchor="middle" x="189.99" y="-607.8" font-family="Times,serif" font-size="14.00">CFRunLoopMode</text>
</g>
<!-- CF&#45;&gt;CFRunLoopMode -->
<g id="edge39" class="edge">
<title>CF&#45;&gt;CFRunLoopMode</title>
<path fill="none" stroke="black" d="M28.69,-1214.85C32.45,-1120.02 51.73,-684.04 90,-639 95.82,-632.14 103.2,-626.94 111.29,-623.01"/>
<polygon fill="black" stroke="black" points="112.81,-626.17 120.69,-619.09 110.11,-619.71 112.81,-626.17"/>
</g>
<!-- CFRunLoop -->
<g id="node40" class="node">
<title>CFRunLoop</title>
<ellipse fill="none" stroke="black" cx="189.99" cy="-558" rx="54.17" ry="18"/>
<text text-anchor="middle" x="189.99" y="-553.8" font-family="Times,serif" font-size="14.00">CFRunLoop</text>
</g>
<!-- CF&#45;&gt;CFRunLoop -->
<g id="edge40" class="edge">
<title>CF&#45;&gt;CFRunLoop</title>
<path fill="none" stroke="black" d="M28.52,-1214.88C31.56,-1115.01 48.28,-634.54 90,-585 99.19,-574.09 112.31,-567.36 126.01,-563.27"/>
<polygon fill="black" stroke="black" points="127.2,-566.58 136.04,-560.73 125.48,-559.79 127.2,-566.58"/>
</g>
<!-- CFRunLoopSource -->
<g id="node41" class="node">
<title>CFRunLoopSource</title>
<ellipse fill="none" stroke="black" cx="189.99" cy="-504" rx="78.78" ry="18"/>
<text text-anchor="middle" x="189.99" y="-499.8" font-family="Times,serif" font-size="14.00">CFRunLoopSource</text>
</g>
<!-- CF&#45;&gt;CFRunLoopSource -->
<g id="edge41" class="edge">
<title>CF&#45;&gt;CFRunLoopSource</title>
<path fill="none" stroke="black" d="M28.38,-1214.76C30.76,-1109.75 44.83,-585.03 90,-531 95.26,-524.71 101.83,-519.8 109.08,-515.99"/>
<polygon fill="black" stroke="black" points="110.87,-519.02 118.56,-511.73 108,-512.64 110.87,-519.02"/>
</g>
<!-- CFRunLoopObserver -->
<g id="node42" class="node">
<title>CFRunLoopObserver</title>
<ellipse fill="none" stroke="black" cx="189.99" cy="-450" rx="86.99" ry="18"/>
<text text-anchor="middle" x="189.99" y="-445.8" font-family="Times,serif" font-size="14.00">CFRunLoopObserver</text>
</g>
<!-- CF&#45;&gt;CFRunLoopObserver -->
<g id="edge42" class="edge">
<title>CF&#45;&gt;CFRunLoopObserver</title>
<path fill="none" stroke="black" d="M28.26,-1214.81C30,-1105.21 41.35,-535.56 90,-477 94.44,-471.66 99.81,-467.32 105.75,-463.8"/>
<polygon fill="black" stroke="black" points="107.46,-466.86 114.79,-459.21 104.29,-460.62 107.46,-466.86"/>
</g>
<!-- CFRunLoopTimer -->
<g id="node43" class="node">
<title>CFRunLoopTimer</title>
<ellipse fill="none" stroke="black" cx="189.99" cy="-396" rx="75.77" ry="18"/>
<text text-anchor="middle" x="189.99" y="-391.8" font-family="Times,serif" font-size="14.00">CFRunLoopTimer</text>
</g>
<!-- CF&#45;&gt;CFRunLoopTimer -->
<g id="edge43" class="edge">
<title>CF&#45;&gt;CFRunLoopTimer</title>
<path fill="none" stroke="black" d="M28.16,-1215.01C29.29,-1101.39 37.85,-486.13 90,-423 95.69,-416.12 102.94,-410.89 110.94,-406.94"/>
<polygon fill="black" stroke="black" points="112.39,-410.13 120.23,-403 109.65,-403.68 112.39,-410.13"/>
</g>
<!-- CFSocket -->
<g id="node44" class="node">
<title>CFSocket</title>
<ellipse fill="none" stroke="black" cx="189.99" cy="-342" rx="44.99" ry="18"/>
<text text-anchor="middle" x="189.99" y="-337.8" font-family="Times,serif" font-size="14.00">CFSocket</text>
</g>
<!-- CF&#45;&gt;CFSocket -->
<g id="edge44" class="edge">
<title>CF&#45;&gt;CFSocket</title>
<path fill="none" stroke="black" d="M28.06,-1214.97C28.64,-1096.88 34.37,-436.67 90,-369 101.06,-355.54 118.12,-348.43 134.98,-344.77"/>
<polygon fill="black" stroke="black" points="135.61,-348.21 144.84,-343 134.37,-341.32 135.61,-348.21"/>
</g>
<!-- CFReadStream -->
<g id="node45" class="node">
<title>CFReadStream</title>
<ellipse fill="none" stroke="black" cx="189.99" cy="-288" rx="64.29" ry="18"/>
<text text-anchor="middle" x="189.99" y="-283.8" font-family="Times,serif" font-size="14.00">CFReadStream</text>
</g>
<!-- CF&#45;&gt;CFReadStream -->
<g id="edge45" class="edge">
<title>CF&#45;&gt;CFReadStream</title>
<path fill="none" stroke="black" d="M27.98,-1214.64C28.04,-1091.41 30.93,-387.15 90,-315 97.33,-306.04 107.32,-299.9 118.14,-295.71"/>
<polygon fill="black" stroke="black" points="119.42,-298.97 127.81,-292.51 117.22,-292.32 119.42,-298.97"/>
</g>
<!-- CFWriteStream -->
<g id="node46" class="node">
<title>CFWriteStream</title>
<ellipse fill="none" stroke="black" cx="189.99" cy="-234" rx="65.51" ry="18"/>
<text text-anchor="middle" x="189.99" y="-229.8" font-family="Times,serif" font-size="14.00">CFWriteStream</text>
</g>
<!-- CF&#45;&gt;CFWriteStream -->
<g id="edge46" class="edge">
<title>CF&#45;&gt;CFWriteStream</title>
<path fill="none" stroke="black" d="M27.91,-1214.81C27.45,-1087.89 27.42,-337.74 90,-261 97.02,-252.39 106.51,-246.37 116.83,-242.19"/>
<polygon fill="black" stroke="black" points="118.19,-245.42 126.5,-238.85 115.9,-238.81 118.19,-245.42"/>
</g>
<!-- CFAttributedString -->
<g id="node47" class="node">
<title>CFAttributedString</title>
<ellipse fill="none" stroke="black" cx="189.99" cy="-180" rx="78.48" ry="18"/>
<text text-anchor="middle" x="189.99" y="-175.8" font-family="Times,serif" font-size="14.00">CFAttributedString</text>
</g>
<!-- CF&#45;&gt;CFAttributedString -->
<g id="edge47" class="edge">
<title>CF&#45;&gt;CFAttributedString</title>
<path fill="none" stroke="black" d="M27.85,-1214.65C26.9,-1083.23 23.95,-288.27 90,-207 95.21,-200.58 101.79,-195.61 109.06,-191.76"/>
<polygon fill="black" stroke="black" points="110.92,-194.76 118.6,-187.46 108.04,-188.38 110.92,-194.76"/>
</g>
<!-- CFRunArray -->
<g id="node48" class="node">
<title>CFRunArray</title>
<ellipse fill="none" stroke="black" cx="189.99" cy="-126" rx="56.08" ry="18"/>
<text text-anchor="middle" x="189.99" y="-121.8" font-family="Times,serif" font-size="14.00">CFRunArray</text>
</g>
<!-- CF&#45;&gt;CFRunArray -->
<g id="edge48" class="edge">
<title>CF&#45;&gt;CFRunArray</title>
<path fill="none" stroke="black" d="M27.79,-1214.99C26.38,-1080.72 20.39,-238.91 90,-153 98.71,-142.25 111.24,-135.54 124.48,-131.41"/>
<polygon fill="black" stroke="black" points="125.43,-134.77 134.19,-128.83 123.63,-128.01 125.43,-134.77"/>
</g>
<!-- CFWindowsNamedPipe -->
<g id="node49" class="node">
<title>CFWindowsNamedPipe</title>
<ellipse fill="none" stroke="black" cx="189.99" cy="-72" rx="95.96" ry="18"/>
<text text-anchor="middle" x="189.99" y="-67.8" font-family="Times,serif" font-size="14.00">CFWindowsNamedPipe</text>
</g>
<!-- CF&#45;&gt;CFWindowsNamedPipe -->
<g id="edge49" class="edge">
<title>CF&#45;&gt;CFWindowsNamedPipe</title>
<path fill="none" stroke="black" d="M28.4,-1214.6C31.55,-1071.77 53.41,-144.29 90,-99 93.64,-94.5 97.95,-90.7 102.7,-87.51"/>
<polygon fill="black" stroke="black" points="104.73,-90.38 111.68,-82.38 101.26,-84.3 104.73,-90.38"/>
</g>
<!-- CFDateIntervalFormatter -->
<g id="node50" class="node">
<title>CFDateIntervalFormatter</title>
<ellipse fill="none" stroke="black" cx="189.99" cy="-18" rx="99.98" ry="18"/>
<text text-anchor="middle" x="189.99" y="-13.8" font-family="Times,serif" font-size="14.00">CFDateIntervalFormatter</text>
</g>
<!-- CF&#45;&gt;CFDateIntervalFormatter -->
<g id="edge52" class="edge">
<title>CF&#45;&gt;CFDateIntervalFormatter</title>
<path fill="none" stroke="black" d="M28.35,-1214.67C31.21,-1068.21 51.65,-92.59 90,-45 93.34,-40.86 97.24,-37.32 101.54,-34.29"/>
<polygon fill="black" stroke="black" points="103.45,-37.22 110.23,-29.08 99.86,-31.22 103.45,-37.22"/>
</g>
</g>
</svg>
